<svg width="531" height="106" viewBox="0 0 531 106" fill="none" xmlns="http://www.w3.org/2000/svg">
<path d="M341.523 24.2071C332.623 24.8208 327.769 35.7156 325.903 24.3391C306.492 24.5385 290.185 24.3179 284.957 17.4893C280.456 12.4119 293.694 8.29984 307.726 6.50728C311.688 4.98823 316.046 4.17313 319.014 5.58655C327.795 5.30055 334.891 6.20222 335.325 8.68928C336.074 9.10967 336.77 9.61759 337.406 10.2239C344.157 11.6324 349.438 14.193 352.638 17.4893C368.477 -2.59128 396.476 -1.24786 408.497 1.93392C439.89 11.8328 446.324 40.7046 445.617 53.9031C447.031 72.004 429.709 47.8933 421.577 54.9644C420.729 30.9247 403.076 24.443 394.355 24.2071C368.618 24.2071 363.598 46.5974 364.305 57.7926V94.9128C354.689 114.993 344.036 103.28 339.911 94.9128L341.523 24.2071Z" fill="black"/>
<path d="M24.7706 54.9641C25.9019 76.7417 46.6895 80.772 56.942 80.0649C75.3259 79.0054 49.6722 91.2581 50.7328 91.2581C53.2782 105.399 78.6618 105.753 56.942 103.751C31.2428 101.382 17.5679 92.2021 10.9818 83.5992C-0.0492289 71.1549 -0.213733 51.5456 1.08289 43.2965C6.45658 16.4281 29.4833 4.52614 40.3249 1.93371C64.3651 -5.13674 86.1663 9.35796 94.0618 17.4891C109.57 37.6189 96.5139 62.8761 97.1463 73.5921L100.059 76.4098C100.393 77.0859 100.648 77.8079 100.84 78.5531C101.814 78.6499 102.469 78.8798 102.891 79.1908L105.952 80.0649C111.936 74.8623 106.972 86.2837 103.368 85.4736C99.3801 93.7969 101.426 89.0613 101.367 83.0062C101.007 81.9355 100.733 80.4736 100.581 78.531C98.2463 77.913 97.2987 76.1749 97.1463 73.5921L83.6113 60.5008C84.4597 31.087 59.7699 23.1463 48.4572 24.2069C27.4266 26.1785 23.8278 46.8329 24.7706 54.9641Z" fill="black"/>
<path d="M282.849 54.9641C283.98 76.7417 304.768 80.772 315.02 80.0649C333.404 79.0054 331.282 86.781 332.343 86.781C334.888 100.922 323.7 103.751 315.02 103.751C289.212 103.751 275.646 92.2021 269.06 83.5992C258.029 71.1549 257.864 51.5456 259.161 43.2965C264.535 16.4281 287.561 4.52614 298.403 1.93371C322.443 -5.13675 344.244 9.35796 352.14 17.4891C371.386 42.4707 346.639 75.3492 358.659 78.531C361.726 78.7501 361.164 81.9828 359.748 85.5218C361.935 93.5009 365.401 87.1632 358.659 93.0258C349.043 113.106 343.537 103.28 339.413 94.9126V57.7924C340.261 28.3785 317.848 23.1463 306.535 24.2069C286.825 26.0548 281.906 46.8329 282.849 54.9641Z" fill="black"/>
<path d="M107.048 54.9173C108.179 76.6949 128.967 80.7251 139.219 80.0181C157.603 78.9585 155.482 86.7341 156.542 86.7341C159.088 100.875 147.899 103.704 139.219 103.704C113.411 103.704 99.8453 92.1552 93.2591 83.5523C82.2281 71.108 82.0636 51.4988 83.3602 43.2497C88.7339 16.3812 111.761 4.47927 122.602 1.88684C146.642 -5.18362 168.444 9.31109 176.339 17.4422C192.177 -2.63837 220.177 -1.29495 232.197 1.88684C263.591 11.7857 270.025 40.6575 269.318 53.8561C270.732 71.9569 255.885 86.7341 247.753 93.8052C237.995 102.29 219.588 104.293 211.339 103.704C199.46 103.987 195.076 97.2226 194.369 93.8052C192.672 80.2295 204.975 78.9572 211.339 80.0181C235.379 82.564 243.982 64.345 245.278 54.9173C244.429 30.8776 226.776 24.3959 218.056 24.16C192.319 24.16 187.299 46.5504 188.006 57.7455V94.8658C178.39 114.946 167.737 103.233 163.612 94.8658V57.7455C164.46 28.3317 142.047 23.0994 130.735 24.16C109.523 29.2508 106.105 46.786 107.048 54.9173Z" fill="#E65A41"/>
<path d="M90.7852 47.3006C97.9372 88.0309 129.674 80.4194 139.926 79.7123C156.542 77.9446 156.542 87.2737 156.542 87.2737C158.663 100.571 147.899 104.244 139.219 104.244C113.411 104.244 99.8453 92.6947 93.2591 84.0919C82.2281 71.6475 82.0636 52.0383 83.3602 43.7892C90.0781 13.6018 111.956 4.45181 122.798 1.85938C101.586 6.95024 89.4966 27.162 90.7852 47.3006Z" fill="#C84F39"/>
<path d="M261.551 47.2989C254.399 88.0292 222.662 80.4177 212.41 79.7107C195.794 77.943 194.372 88.1173 194.372 88.1173C192.251 101.414 204.437 104.242 213.117 104.242C238.925 104.242 252.491 92.6931 259.077 84.0902C270.108 71.6459 270.272 52.0366 268.976 43.7876C262.258 13.6002 239.895 3.56509 229.053 0.972656C250.265 6.06352 262.839 27.1604 261.551 47.2989Z" fill="#C84F39"/>
<path d="M445.474 54.9641C446.605 76.7417 467.393 80.772 477.645 80.0649C496.029 79.0054 493.907 86.781 494.968 86.781C497.513 100.922 486.325 103.751 477.645 103.751C451.837 103.751 438.271 92.2021 431.685 83.5992C420.654 71.1549 420.489 51.5456 421.786 43.2965C427.16 16.4281 450.186 4.52614 461.028 1.93371C485.068 -5.13675 506.869 9.35796 514.765 17.4891C532.349 40.3137 527.375 92.4543 529.89 99.4008L530.829 100.096C525.189 107.532 517.577 104.926 517.542 99.6963C510.179 110.431 505.595 102.129 502.038 94.9126V57.7924C502.886 28.3785 480.473 23.1463 469.16 24.2069C447.578 26.2302 444.531 46.8329 445.474 54.9641Z" fill="black"/>
</svg>
